/* XPM */
static char * zedicoxpm[] = {
"38 38 7 1",
" 	c #FFFFFFFFFFFF",
".	c #CF3CCB2BCF3C",
"X	c #79E77DF779E7",
"o	c #861700000000",
"O	c #FFFF00000000",
"+	c #00000000FFFF",
"@	c #AEBAAEBAAEBA",
"                                     .",
"                                    .X",
"  ..................................XX",
"  ..................................XX",
"  ..................................XX",
"  ..................................XX",
"  ..................................XX",
"  ..................................XX",
"  .......ooooooooooooooooo..ooo.....XX",
"  ......ooOOOOOOOOOOOOOOOooooooXX...XX",
"  .....oOOOOOOOOOOOOOOOOOOOOooXXX...XX",
"  .....oooooooooooooooooooooXXXXX...XX",
"  ....oooXXXXXXXXXXXXXXooooXXXX.....XX",
"  ......XXX.........oooooXXXX.......XX",
"  .................oooooXXXX........XX",
"  ...............oooooXXXX..........XX",
"  .............oooooXXXX............XX",
"  ...........oooooXXXX..............XX",
"  ........oooOOOoooooooooooooooo....XX",
"  .....ooooOOooooooOOOOOOOOOOOoXXX..XX",
"  ....ooOOooXXXXXXXoXooooOOOOoXXXX..XX",
"  .....oooXXXXXX....XXXXXooooXXXX...XX",
"  .......XXXX.............XXXXXX....XX",
"  ..................................XX",
"  ..................................XX",
"  ..................................XX",
"  .............+.....++++...........XX",
"  ...........+++@...+.@@@+..........XX",
"  .............+@...+@...+@.........XX",
"  .............+@...+@...+@.........XX",
"  ...........+++++...++++.@.........XX",
"  ............@@@@@+..@@@@..........XX",
"  ..................@...............XX",
"  ..................................XX",
"  ..................................XX",
"  ..................................XX",
" .XXXXXXXXXXXXXXXXXXXXXXXXXXXXXXXXXXXX",
".XXXXXXXXXXXXXXXXXXXXXXXXXXXXXXXXXXXXX"};
